<?xml version="1.0" encoding="iso-8859-1"?>
<!-- Generator: Adobe Illustrator 19.0.0, SVG Export Plug-In . SVG Version: 6.00 Build 0)  -->
<svg version="1.1" id="Layer_1" xmlns="http://www.w3.org/2000/svg" xmlns:xlink="http://www.w3.org/1999/xlink" x="0px" y="0px"
	 viewBox="0 0 512 512" style="enable-background:new 0 0 512 512;" xml:space="preserve">
<path style="fill:#DA4453;" d="M490.672,159.992H21.344C9.562,159.992,0,169.547,0,181.328v149.328C0,342.438,9.562,352,21.344,352
	h469.328c11.781,0,21.328-9.562,21.328-21.344V181.328C512,169.547,502.453,159.992,490.672,159.992z"/>
<path style="fill:#ED5564;" d="M352,21.328C352,9.547,342.453,0,330.672,0H181.328C169.547,0,160,9.547,160,21.328v469.328
	c0,11.781,9.547,21.344,21.328,21.344h149.344c11.781,0,21.328-9.562,21.328-21.344V21.328z"/>
<path style="fill:#F5F7FA;" d="M255.797,63.992c-5.891,0-10.672,4.781-10.672,10.672v362.664c0,5.891,4.781,10.672,10.672,10.672
	s10.656-4.781,10.656-10.672V74.664C266.453,68.773,261.688,63.992,255.797,63.992z"/>
<g>
	<path style="fill:#E6E9ED;" d="M279.031,384.172c-0.109-0.016-12.125-2.297-23.719-9.266
		c-13.969-8.406-21.047-19.781-21.047-33.797c0-7.953,3.312-12.641,10.859-16.859v-23.594c-5.984,2.469-11.75,5.312-16.75,9.109
		c-10.25,7.797-15.438,18.328-15.438,31.344c0,21.953,11.062,40.078,32,52.453c14.859,8.75,29.688,11.484,30.297,11.594
		c0.641,0.125,1.281,0.172,1.906,0.172c5.047,0,9.531-3.609,10.469-8.766C288.656,390.781,284.812,385.25,279.031,384.172z"/>
	<path style="fill:#E6E9ED;" d="M266.453,151.109c0.109-0.016,0.219-0.039,0.312-0.055c11.359-2.047,20.531-1.734,20.594-1.734
		c5.891,0.234,10.859-4.344,11.094-10.234c0.234-5.883-4.344-10.844-10.234-11.078c-0.812-0.039-9.844-0.344-21.766,1.477V151.109z"
		/>
	<path style="fill:#E6E9ED;" d="M292.047,235.047c-8.922-5.883-20.078-8.914-30.875-11.844
		c-23.797-6.469-37.281-11.109-37.312-31.227c-0.031-11.055,3.359-19.703,10.328-26.445c3.203-3.086,6.969-5.57,10.938-7.578
		v-23.156c-9.125,3.289-18.234,8.148-25.688,15.32c-11.25,10.844-16.953,24.938-16.906,41.898
		c0.031,16.594,6.375,29.438,18.859,38.18c10.047,7.039,22.328,10.367,34.188,13.594c23,6.242,32.359,10.148,32.359,23.867
		c0,12.938-6.656,18.719-21.484,24.875v22.906c9.312-3.422,18.719-7.156,26.516-13.297c10.812-8.516,16.297-20.109,16.297-34.484
		C309.266,253.555,303.469,242.578,292.047,235.047z"/>
</g>
<g>
</g>
<g>
</g>
<g>
</g>
<g>
</g>
<g>
</g>
<g>
</g>
<g>
</g>
<g>
</g>
<g>
</g>
<g>
</g>
<g>
</g>
<g>
</g>
<g>
</g>
<g>
</g>
<g>
</g>
</svg>
